HIERARCHY
ROOT hip
{
	OFFSET 0.000000 0.000000 0.000000 
	CHANNELS 6 Xposition Yposition Zposition Xrotation Zrotation Yrotation
	JOINT abdomen
	{
		OFFSET 0.000000 3.402643 0.000000 
		CHANNELS 3 Xrotation Zrotation Yrotation
		JOINT chest
		{
			OFFSET 0.000000 8.438565 -0.680529 
			CHANNELS 3 Xrotation Zrotation Yrotation
			JOINT neck
			{
				OFFSET 0.000000 10.207942 -0.272212 
				CHANNELS 3 Xrotation Zrotation Yrotation
				JOINT head
				{
					OFFSET 0.000000 3.130431 0.000000 
					CHANNELS 3 Xrotation Zrotation Yrotation
					End Site
					{
						OFFSET 0.000000 3.130435 0.000000 
					}
				}
			}
			JOINT lCollar
			{
				OFFSET 3.470700 6.669187 -0.816635 
				CHANNELS 3 Yrotation Zrotation Xrotation
				JOINT lShldr
				{
					OFFSET 3.198488 0.000000 0.000000 
					CHANNELS 3 Zrotation Yrotation Xrotation
					JOINT lForeArm
					{
						OFFSET 10.139888 0.000000 0.000000 
						CHANNELS 3 Yrotation Zrotation Xrotation
						JOINT lHand
						{
							OFFSET 8.370511 0.000000 0.000000 
							CHANNELS 3 Zrotation Yrotation Xrotation
							End Site
							{
								OFFSET 4.083176 0.000000 0.000000 
							}
						}
					}
				}
			}
			JOINT rCollar
			{
				OFFSET -3.470700 6.669187 -0.816635 
				CHANNELS 3 Yrotation Zrotation Xrotation
				JOINT rShldr
				{
					OFFSET -3.198488 0.000000 0.000000 
					CHANNELS 3 Zrotation Yrotation Xrotation
					JOINT rForeArm
					{
						OFFSET -10.139888 0.000000 0.000000 
						CHANNELS 3 Yrotation Zrotation Xrotation
						JOINT rHand
						{
							OFFSET -8.370511 0.000000 0.000000 
							CHANNELS 3 Zrotation Yrotation Xrotation
							End Site
							{
								OFFSET -4.083176 0.000000 0.000000 
							}
						}
					}
				}
			}
		}
	}
	JOINT lThigh
	{
		OFFSET 5.308129 -1.633274 1.361059 
		CHANNELS 3 Xrotation Zrotation Yrotation
		JOINT lShin
		{
			OFFSET -2.041588 -20.007561 0.000000 
			CHANNELS 3 Xrotation Zrotation Yrotation
			JOINT lFoot
			{
				OFFSET 0.000000 -19.190928 -1.224953 
				CHANNELS 3 Xrotation Yrotation Zrotation
				End Site
				{
					OFFSET 0.000000 -2.449906 4.627600 
				}
			}
		}
	}
	JOINT rThigh
	{
		OFFSET -5.308129 -1.633274 1.361059 
		CHANNELS 3 Xrotation Zrotation Yrotation
		JOINT rShin
		{
			OFFSET 2.041588 -20.007561 0.000000 
			CHANNELS 3 Xrotation Zrotation Yrotation
			JOINT rFoot
			{
				OFFSET 0.000000 -19.190928 -1.224953 
				CHANNELS 3 Xrotation Yrotation Zrotation
				End Site
				{
					OFFSET 0.000000 -2.449906 4.627600 
				}
			}
		}
	}
}
MOTION
Frames: 14
Frame Time: 0.011111
9.870502 47.616249 12.417383 -2.279655 14.718103 -69.860161 37.993820 -1.362484 -8.184382 -25.839081 4.695185 -1.961635 -13.425177 -7.696060 -0.409814 17.487888 13.877938 -0.330105 9.553514 -10.448139 3.647584 -61.695930 -19.899103 42.334324 -86.920319 2.524005 32.272720 8.524705 12.647240 -27.659557 -5.779580 5.050342 2.610686 56.210621 6.064051 30.060175 94.544411 -8.428962 37.728741 -8.534408 -12.637552 45.120953 -27.429634 23.758417 -5.460814 76.100319 -0.720730 -9.243939 -8.357705 0.558021 -3.102769 -10.377971 13.727555 -10.930354 34.318707 5.076195 5.393278 -27.569601 -4.341247 -0.088896 
9.046180 47.657764 13.175978 -2.020540 14.815492 -70.105858 37.945740 -1.260422 -8.225614 -25.910221 5.248302 -2.009084 -14.557332 -9.038876 0.766604 19.651657 15.719351 2.039356 9.553514 -10.448139 3.647584 -61.252609 -18.227942 42.067455 -86.871834 2.441270 32.188740 8.524705 12.647240 -27.874399 -5.779580 5.050342 2.610686 56.306507 8.425598 29.527246 94.769028 -8.526262 37.842224 -8.534408 -12.637552 43.763527 -30.108232 24.203630 -6.841910 75.982567 -0.731005 -9.262803 -9.971581 0.038292 -3.157142 -9.124113 13.420403 -10.066833 34.050171 5.100757 5.337220 -28.644722 -3.514169 0.062920 
8.259910 47.656502 13.998729 -0.906320 14.311292 -70.475220 38.327812 -0.108551 -7.062772 -26.106514 5.216828 -1.896410 -13.658769 -7.452640 -0.734571 17.415148 13.777971 -0.991921 9.553514 -10.448139 3.647584 -60.871288 -16.854765 41.985287 -86.833366 2.376963 32.123432 8.524705 12.647240 -27.845106 -5.779580 5.050342 2.610686 56.699348 10.585815 28.659822 95.024460 -8.634105 37.977577 -8.534408 -12.637552 42.249855 -32.871609 26.020151 -7.825368 75.554932 -0.789225 -9.229139 -11.381931 -0.729360 -3.282588 -7.270041 14.288500 -8.755640 33.722618 5.119826 5.284872 -29.584417 -3.154297 0.065977 
7.407281 47.671600 14.747886 -1.700436 14.886722 -70.854362 38.124611 -1.344095 -7.417604 -26.032286 5.872939 -1.844128 -13.585947 -7.696995 -1.061523 17.165779 14.103065 -1.694027 9.553514 -10.448139 3.647584 -60.306160 -15.511961 42.699535 -86.842674 2.395197 32.132294 8.524705 12.647240 -26.975964 -5.779580 5.050342 2.610686 57.433777 12.238820 27.620831 95.489532 -8.822019 38.217751 -8.534408 -12.637552 41.165871 -35.202900 25.594555 -7.668943 74.504761 -0.945543 -9.165709 -12.710857 -1.384458 -3.413194 -6.454783 12.929012 -7.945168 33.443607 5.134476 5.273596 -29.901031 -4.064086 -0.470982 
6.512506 47.731674 15.532268 -2.182700 15.320941 -71.124313 37.848282 -1.995065 -7.483451 -25.857494 6.129695 -1.774713 -13.458879 -7.895486 -1.340387 16.732010 14.383893 -2.281113 9.553514 -10.448139 3.647584 -59.600689 -14.390894 43.486248 -86.864449 2.432667 32.179237 8.524705 12.647240 -25.901745 -5.779580 5.050342 2.610686 57.927715 13.610918 27.081169 96.046906 -9.036761 38.495132 -8.534408 -12.637552 40.804539 -37.246014 25.210083 -7.886189 72.917801 -1.144253 -9.081822 -13.998952 -1.747942 -3.483200 -5.358532 11.869867 -7.013228 33.006596 5.154159 5.220681 -30.006254 -4.985229 -0.954122 
5.569613 47.868168 16.335833 -2.308610 15.431728 -71.470078 37.753654 -2.134476 -6.970148 -25.799122 6.156835 -1.623844 -13.678188 -8.108121 -1.589840 16.963345 14.394043 -2.840521 9.553514 -10.448139 3.647584 -58.991783 -13.553586 43.789425 -86.864792 2.432563 32.179237 8.524705 12.647240 -26.526747 -5.779580 5.050342 2.610686 58.196682 14.662492 26.731300 96.670128 -9.260978 38.799492 -8.534408 -12.637552 41.341656 -38.700127 25.009211 -8.289124 70.726906 -1.423784 -8.945334 -14.735208 -1.214954 -3.340055 -3.884913 11.196528 -5.509946 32.528084 5.183653 5.176543 -30.372704 -5.100955 -1.105694 
4.635840 48.001522 17.120216 -2.157174 15.472779 -71.649910 37.683243 -2.097282 -6.075038 -25.700645 6.045153 -1.395089 -13.765719 -8.119803 -1.992350 16.877190 14.301035 -3.698703 9.553514 -10.448139 3.647584 -58.275501 -12.982956 45.026001 -86.926277 2.533661 32.291992 8.524705 12.647240 -24.436903 -5.779580 5.050342 2.610686 58.737617 15.581802 26.496338 97.256828 -9.461261 39.092503 -8.534408 -12.637552 42.562359 -40.232853 25.009119 -8.764449 68.086227 -1.763945 -8.774679 -15.259411 -0.385169 -3.090953 -2.312107 10.781448 -4.032275 31.809061 5.246778 5.052317 -30.371748 -4.812318 -0.954190 
3.695462 48.153740 17.890444 -2.079843 15.626911 -71.626503 37.570744 -1.997366 -5.456246 -25.541342 5.613061 -1.225881 -13.676166 -8.114644 -2.463093 16.407541 14.521307 -4.638782 9.553514 -10.448139 3.647584 -57.257595 -12.650075 46.008789 -86.982803 2.624409 32.385609 8.524705 12.647240 -23.850964 -5.779580 5.050342 2.610686 59.408554 16.317564 26.788658 97.789902 -9.627753 39.361786 -8.534408 -12.637552 44.271343 -41.627842 24.637484 -9.553780 64.984695 -2.144992 -8.556917 -16.279833 0.156110 -2.895476 -0.907259 10.148549 -3.283884 31.052042 5.281149 4.964296 -29.862513 -4.578094 -0.711128 
2.793141 48.288666 18.663502 -1.523780 15.413169 -71.651772 37.830921 -1.345518 -4.345431 -25.725443 5.093490 -1.012610 -13.766801 -8.487091 -2.819122 16.490776 15.094462 -5.380567 9.553514 -10.448139 3.647584 -56.183975 -12.252536 47.051182 -87.080864 2.776618 32.535133 8.524705 12.647240 -23.860731 -5.779580 5.050342 2.610686 59.669216 16.674774 27.457335 98.323578 -9.788270 39.624115 -8.534408 -12.637552 46.351425 -42.876030 24.900473 -10.600922 61.538174 -2.545838 -8.283691 -16.960310 0.251170 -2.837236 0.605310 10.192498 -2.302346 30.574064 5.301450 4.897706 -28.958895 -5.253029 -0.831227 
1.888618 48.391506 19.463612 -0.808005 15.056059 -71.884216 38.172459 -0.668092 -2.955495 -25.850887 4.551257 -0.749318 -13.948827 -8.558130 -3.087548 16.670143 15.395176 -5.913035 9.553514 -10.448139 3.647584 -55.216938 -12.087595 47.979519 -87.188118 2.935647 32.694534 8.524705 12.647240 -23.733776 -5.779580 5.050342 2.610686 59.593933 16.747446 28.672792 98.818680 -9.928217 39.854607 -8.534408 -12.637552 48.294777 -43.604649 25.407103 -11.559660 57.675941 -2.984751 -7.955132 -16.577869 0.874644 -2.653814 1.961546 10.471941 -1.224726 30.694309 5.291184 4.916073 -27.541752 -6.584544 -1.104774 
0.889113 48.556313 20.276926 -0.880156 15.084283 -72.201225 38.117100 -0.688733 -2.526722 -25.614288 3.999023 -0.593641 -14.280463 -7.818992 -3.338275 16.805851 14.933338 -6.350258 9.553514 -10.448139 3.647584 -54.426956 -12.079793 48.312153 -87.332726 3.143905 32.881226 8.524705 12.647240 -23.977919 -5.779580 5.050342 2.610686 59.697979 16.819902 30.449762 99.056305 -9.994214 39.973351 -8.534408 -12.637552 48.890484 -43.388187 24.928226 -12.219677 53.336266 -3.455762 -7.555071 -15.988869 1.435858 -2.554620 2.654040 9.708688 -0.651039 31.541851 5.243192 5.036790 -26.111971 -6.795109 -0.846529 
-0.097183 48.740929 21.071688 -1.361683 15.348044 -72.554581 38.034691 -1.166956 -2.356325 -25.467707 4.079395 -0.483449 -15.024797 -7.812612 -3.457342 17.779963 14.675980 -6.645164 9.553514 -10.448139 3.647584 -54.261364 -12.214340 48.597832 -87.485725 3.347276 33.069492 8.524705 12.647240 -24.602917 -5.779580 5.050342 2.610686 59.158726 16.634632 32.066593 99.128784 -10.013889 40.008564 -8.534408 -12.637552 48.236187 -42.833706 24.118534 -13.062184 48.762104 -3.892848 -7.090004 -15.347193 1.057276 -2.685503 2.597145 8.308927 -0.926716 33.254738 5.144756 5.250265 -24.397228 -5.571429 0.024905 
-1.049511 48.881828 21.881229 -1.199514 15.515067 -72.953629 38.056728 -1.795607 -1.056963 -25.869247 7.391580 -0.283019 -15.814031 -10.074295 -3.386171 18.885067 13.601337 -7.315867 9.553514 -10.448139 3.647584 -57.213036 -12.340465 50.042313 -87.549751 3.430561 33.135319 8.524705 12.647240 -25.589247 -5.779580 5.050342 2.610686 54.911518 15.860470 32.583622 99.314400 -10.064586 40.094040 -8.534408 -12.637552 47.972515 -42.526489 24.178797 -13.974728 44.135838 -4.309553 -6.593572 -14.404548 0.461501 -2.903286 2.030385 7.495889 -1.914416 35.839581 4.963348 5.581063 -21.518448 -4.259300 1.010789 
-2.066000 49.051346 22.709642 -1.145434 15.714374 -73.723984 37.586109 -1.149656 -0.647066 -25.133904 3.056959 0.001178 -15.828514 -7.678838 -3.806310 18.633858 14.932170 -7.318938 9.553514 -10.448139 3.647584 -52.836269 -13.317991 49.260269 -87.776131 3.709492 33.380791 8.524705 12.647240 -25.237682 -5.779580 5.050342 2.610686 58.086441 15.675887 35.934532 99.170570 -10.023963 40.023354 -8.534408 -12.637552 46.380718 -41.525997 24.226341 -14.092873 39.692070 -4.689679 -6.064521 -13.660866 0.457419 -2.923012 1.053724 6.498386 -2.901854 39.079094 4.743832 5.961116 -17.601185 -3.379616 1.844050 
